/* XPM */
static char *_7f70fd86e3a47e2a987631fc53d4e23DSpPoVrP9N7rIlpZ[] = {
/* columns rows colors chars-per-pixel */
"64 64 8 1 ",
"  c #011314",
". c #053945",
"X c #06404E",
"o c #074E43",
"O c #06473B",
"+ c #06424C",
"@ c #000D0D",
"# c #054035",
/* pixels */
"@@@@@@@@@@@@@@@@@@@@@@@@@@@@@@@@@@@@@@@@@@@@@@@@@@@@@@@@@@@@@@@@",
"          @@            @@              @@              @@      ",
"..........  #O..........  #O............  #O............  #O....",
"XXXXXXXXX.  Oo+XXXXXXXX.  Oo+XXXXXXXXXX.  Oo+XXXXXXXXXX.  Oo+XXX",
"XXXXXXXXX.  Oo+XXXXXXXX.  Oo+XXXXXXXXXX.  Oo+XXXXXXXXXX.  Oo+XXX",
"++++XXXXX.  Oo++++++XXX.  Oo++++++++XXX.  Oo++++++++XXX.  Oo++++",
"oooo+XXXX.  Oooooooo+XX.  Oooooooooo+XX.  Oooooooooo+XX.  Oooooo",
"OOOO......  #OOOOOOO....  #OOOOOOOOO....  #OOOOOOOOO....  #OOOOO",
"          @@            @@              @@              @@      ",
"@@              @@              @@              @@              ",
"@ #O............  #O............  #O............  #O............",
"@ Oo+XXXXXXXXXX.  Oo+XXXXXXXXXX.  Oo+XXXXXXXXXX.  Oo+XXXXXXXXXXX",
"@ Oo+XXXXXXXXXX.  Oo+XXXXXXXXXX.  Oo+XXXXXXXXXX.  Oo+XXXXXXXXXXX",
"@ Oo++++++++XXX.  Oo++++++++XXX.  Oo++++++++XXX.  Oo++++++++XXXX",
"@ Oooooooooo+XX.  Oooooooooo+XX.  Oooooooooo+XX.  Oooooooooo+XXX",
"@ #OOOOOOOOO....  #OOOOOOOOO....  #OOOOOOOOO....  #OOOOOOOOO....",
"@@              @@              @@              @@              ",
"        @@              @@              @@              @@      ",
"........  #O............  #O............  #O............  #O....",
"XXXXXXX.  Oo+XXXXXXXXXX.  Oo+XXXXXXXXXX.  Oo+XXXXXXXXXX.  Oo+XXX",
"XXXXXXX.  Oo+XXXXXXXXXX.  Oo+XXXXXXXXXX.  Oo+XXXXXXXXXX.  Oo+XXX",
"++++XXX.  Oo++++++++XXX.  Oo++++++++XXX.  Oo++++++++XXX.  Oo++++",
"oooo+XX.  Oooooooooo+XX.  Oooooooooo+XX.  Oooooooooo+XX.  Oooooo",
"OOOO....  #OOOOOOOOO....  #OOOOOOOOO....  #OOOOOOOOO....  #OOOOO",
"        @@              @@              @@              @@      ",
"@@              @@              @@              @@              ",
"@ #O............  #O............  #O............  #O............",
"@ Oo+XXXXXXXXXX.  Oo+XXXXXXXXXX.  Oo+XXXXXXXXXX.  Oo+XXXXXXXXXXX",
"@ Oo+XXXXXXXXXX.  Oo+XXXXXXXXXX.  Oo+XXXXXXXXXX.  Oo+XXXXXXXXXXX",
"@ Oo++++++++XXX.  Oo++++++++XXX.  Oo++++++++XXX.  Oo++++++++XXXX",
"@ Oooooooooo+XX.  Oooooooooo+XX.  Oooooooooo+XX.  Oooooooooo+XXX",
"@ #OOOOOOOOO....  #OOOOOOOOO....  #OOOOOOOOO....  #OOOOOOOOO....",
"@@              @@              @@              @@              ",
"        @@              @@              @@              @@      ",
"........  #O............  #O............  #O............  #O....",
"XXXXXXX.  Oo+XXXXXXXXXX.  Oo+XXXXXXXXXX.  Oo+XXXXXXXXXX.  Oo+XXX",
"XXXXXXX.  Oo+XXXXXXXXXX.  Oo+XXXXXXXXXX.  Oo+XXXXXXXXXX.  Oo+XXX",
"++++XXX.  Oo++++++++XXX.  Oo++++++++XXX.  Oo++++++++XXX.  Oo++++",
"oooo+XX.  Oooooooooo+XX.  Oooooooooo+XX.  Oooooooooo+XX.  Oooooo",
"OOOO....  #OOOOOOOOO....  #OOOOOOOOO....  #OOOOOOOOO....  #OOOOO",
"        @@              @@              @@              @@      ",
"@@              @@              @@              @@              ",
"@ #O............  #O............  #O............  #O............",
"@ Oo+XXXXXXXXXX.  Oo+XXXXXXXXXX.  Oo+XXXXXXXXXX.  Oo+XXXXXXXXXXX",
"@ Oo+XXXXXXXXXX.  Oo+XXXXXXXXXX.  Oo+XXXXXXXXXX.  Oo+XXXXXXXXXXX",
"@ Oo++++++++XXX.  Oo++++++++XXX.  Oo++++++++XXX.  Oo++++++++XXXX",
"@ Oooooooooo+XX.  Oooooooooo+XX.  Oooooooooo+XX.  Oooooooooo+XXX",
"@ #OOOOOOOOO....  #OOOOOOOOO....  #OOOOOOOOO....  #OOOOOOOOO....",
"@@              @@              @@              @@              ",
"        @@              @@              @@              @@      ",
"........  #O............  #O............  #O............  #O....",
"XXXXXXX.  Oo+XXXXXXXXXX.  Oo+XXXXXXXXXX.  Oo+XXXXXXXXXX.  Oo+XXX",
"XXXXXXX.  Oo+XXXXXXXXXX.  Oo+XXXXXXXXXX.  Oo+XXXXXXXXXX.  Oo+XXX",
"++++XXX.  Oo++++++++XXX.  Oo++++++++XXX.  Oo++++++++XXX.  Oo++++",
"oooo+XX.  Oooooooooo+XX.  Oooooooooo+XX.  Oooooooooo+XX.  Oooooo",
"OOOO....  #OOOOOOOOO....  #OOOOOOOOO....  #OOOOOOOOO....  #OOOOO",
"        @@              @@              @@              @@      ",
"@@              @@              @@              @@              ",
"@ #O............  #O............  #O............  #O............",
"@ Oo+XXXXXXXXXX.  Oo+XXXXXXXXXX.  Oo+XXXXXXXXXX.  Oo+XXXXXXXXXXX",
"@ Oo+XXXXXXXXXX.  Oo+XXXXXXXXXX.  Oo+XXXXXXXXXX.  Oo+XXXXXXXXXXX",
"@ Oo++++++++XXX.  Oo++++++++XXX.  Oo++++++++XXX.  Oo++++++++XXXX",
"@ Oooooooooo+XX.  Oooooooooo+XX.  Oooooooooo+XX.  Oooooooooo+XXX",
"@ Oooooooooo+XX.  Oooooooooo+XX.  Oooooooooo+XX.  Oooooooooo+XXX"
};
