/* XPM */
static char *db1a19527aa847f7e0a14b62729815c3rsqlzT4MIe7JQQ5c[] = {
/* columns rows colors chars-per-pixel */
"64 64 52 1 ",
"  c #5D4037",
". c #D64214",
"X c #3D2722",
"o c #785447",
"O c #412A25",
"+ c #6E4D41",
"@ c #E14515",
"# c #64443B",
"$ c #221714",
"% c #604239",
"& c #745045",
"* c #D23F12",
"= c #DD4415",
"- c #C4390F",
"; c #EA4817",
": c #281B18",
"> c #1D1210",
", c #16100F",
"< c #4B332C",
"1 c #75230A",
"2 c #4E1807",
"3 c #452F29",
"4 c #2D1F1B",
"5 c #BC370E",
"6 c #523830",
"7 c #583C34",
"8 c #31231F",
"9 c #6B4B40",
"0 c #0D0908",
"q c #CB3B0F",
"w c #372621",
"e c #E54716",
"r c #7B5749",
"t c #84280C",
"y c #421507",
"u c #561A08",
"i c #67473D",
"p c #361006",
"a c #8F2B0C",
"s c #B2360F",
"d c #641D07",
"f c #825B4D",
"g c #293338",
"h c #102027",
"j c #A72F0A",
"k c #7F594B",
"l c #805A4C",
"z c #865E4F",
"x c #F34B17",
"c c #3D474A",
"v c #494E51",
"b c #303C42",
/* pixels */
"iiii9<wr+&&&&&+rwO 777777%:3 %7O<#777 :3 777777 : r<Xo&+r3w%7777",
"++++&6wzorrrrol&,<#     %647#X:$:47#%#:3#      #$il6&rroz3wi    ",
"999+i8iroooooriO$3%    7#w:4>46&#w$46#6:       #: kkroo&f3w#    ",
"+++&9:zkroooor3&O3#    %#8,<6&o7ik%X,86$7       6:oookfkz3w#    ",
"ii96$,4X&rfllkfk4O 777%O>Oorrr++9oko93>, #%####%6:okl344+38#%%##",
"$$$,86<O,< 7 %74>$,0>0083:7iO#38w%<6oO08433OO3O6 :fi<0:,,,0>3333",
"    %%i<4<4w:0wi+oX$w,4 &6>:O>ppp,84>8io<,0ww840:0X4<44OXXX>>>>>",
"      %<4o&oO o+9&O>$ r& o7,01suaay>,6o&o&w<+o&6<6<9r$4OXXXOOOOO",
"      %<4&99i+99+ 0$ ko## 4p1qqyjq5ay4OX<o&8>7&&oo&++O:OXXXXXXXX",
"      %<4&9++9+9&70%ko6X802--5-2j-5-50,8X#l&%:7&X8+9+9>XXXXXXXXX",
"      %<4&9+++9&%:%ko6X8yu1q55q2j-5-jyjy43+#<i4O3#+++i>XXXXXXXXX",
"      %<4&9++9&%:%ko6X8p51dq55q2j-5-jyq5y439if6$o++++i>XXXXXXXXX",
"      %<4&9+++#,$7o&78pj*1dq55q2j-5-jy5-5y: f#w03&+++i>XXXXXXXXX",
"      %<4&9+9&$3O,43wpj-q1d*.q-2j-5-jy-5-5y88$$ 83&9+i,XXXXXXXXX",
"      %<:&99+64+r#40ps-5q1d=..*2s-5-jy-55qa0$<ol%,9+9+O$OXXXXXXX",
"%#####i64r&o#,il&<O>yq55q11e..=2s---sy-55qt047+oo<899&6,OXXOOXXX",
"6:::::4$,8884Oo&3O>du-55*11;**eus-*-525--q1d1$O&ro$6oo6>3Xw>:OOO",
"4%,$4:::4:404rr%X4djy-55*t1;-qeus*q*-2--*q1ds>X7or7$77X04$$%O:4:",
"oz:wOOOOOOX$7r&Ow>-jy--5.t1;q*eus@.=-2.*.=1d.d$767&$0w884<rkr>:4",
"oo$8XXOXXO:$or&3$1qjy-.-@t1;..eus@.=-2=..e1d*j><+il<:zlffkooo:+&",
"f3$OXO4wOO$wr6#3pjqjy*..;t1;..eus@.=-2=.*ead=-u:ilr 06koooooo:i+",
"fO$OXO4,:$0973%$dqqjy...;t1;..eus.*=-2=.qea1@5s0#ki&4<fooooro:i+",
"fO$OXXO8$>,#+o<p55*s2@..;t1;q*eus.q=-2=q*;t1e5jpOo7#4<fooooor:i+",
"fO$OXXXOOw,9ff<p.-.52@..;tt;-*eus@-=-2=-.;t1;qq1>r+&4<fooorf w++",
"z3$OXXXXXw,36#4p=q@52@..;ad..*@us@qq-2=**et1e**1,666$<foor3i46&9",
"o84OXXXXXw0$>>0y@.=52@*.ed,X5;xu5x@@*2;e@xa1x@xt0>,>0<foor+w,7&9",
"7>OXXXXXXw,9&+3y@.@52=-ed0bcOud>2dudu>uuudppdudp$9++4<l&ooozw6&9",
"3$OXXXOOOX,#7oOy=.@52@-d0gggcccccccccccccccccccg>6or:6zlfflzw7r&",
"00wOOw>>>,0i9%4y**@52@s:hggggbggbbbgggbbgggbbgbh$X7fX$3XOOXO,:ww",
"O$0w,>333O,#z#4y**@52*.*p,bbh,>0,>,>,0>>,>,,>,>0$<+f<$3OOOOO3OOO",
"66O0$6#%# >#l#4y.*@52@.=*phht--2j-5-jy-55q1dq5q1,<of<w9#########",
"<6O$i    7,#l#4y@.=52@.*;apa=.=use=e-2@.*;a1x.;a>iof<8#        7",
"<6O$%   %7,%l%:y@.*s2@..;ttx.**us@.=52=.q=a1;*ea>o&73w#       %:",
"<6O$%   %6$+k+wy@.*su@..;t1e.**us@.*52==q=a1;q@a>r77<8#       %>",
"<6O$#   %6:o7l<p@.*s2@*q;t1;.**us@**-2==q@a1;-=a>o&l<8#       %$",
"<6306%  %647X&wy@.=52@.q@t1;.**us@.=-2=..;t1;-=a>&of<8#       %>",
"<6O,:7% %6:&+i4y@.@52@.*et1;.**us@.=-2=..;t1;*ea$rkz<8#        $",
"<6O:ww% %7,XXw$y@=*y,1@.;t1;.*.us@.=-2=..;t1;*ea033X$wi      #w<",
"<6O$%O   7,$8:,pe*p0h0d=et1;..eus@.=-2=..;t1;*ea0:$:,wO7     98<",
"<6O$%%  %6:ork<p@2,dd2,1xt1;..eus@.=-2=..;t1;*ea$&ok<:8####i6<$6",
"66O$#%%%#7:ro&wy@$ht1dhdxt1;..eus**@-2=..;t1;*ea>orf608w88w8444X",
">$>0$>$$:>$rr :y@ph4,3gdxt1;..eus**@-2=..;t1;*ea>7of<,:$$$0w#o&6",
"%%#i7$99+%:r&<4ye5:hhgu-;t1@q.eus@.=-2=q*;t1;*ea>X7z<$3OOO>i&99&",
"+++&i:rrk&4or#4y=@5dpd-=;t1@-.eus@.=-2=*-;t1;*ea>O7z<>OXXX,%+9+9",
"999+i:oor+4 6rOy@.equ;=q@t1@q.eus@.=-2=*q;t1;*ea,<&z<>OXXO,%+9++",
"++++i:oor+4i+f3p@.=52=.q@t1;..eus@.=-2=..;t1;*=a>#9i<>OXXO,%+9++",
"++9&O6ror+:rrr3y@.@52@=q@t1;..eus@.=-2=..;t1;**a>r+<3$OXO:w+++++",
"++9&:ikor+:or#4y@.@52@.q@t1;..eus@**-2=..;t1;-=a>&ri<$OXO><&9+++",
"+99&4#kor+:rr#4y@.@52@..;t1e..eus@..52=..;t1;-=a>oof<>OXO>3&9+++",
"+&&&4#kor&4ook3y@*@52@..;ttx..@us@.=-2=..et1;*ea$&&k6>OXO>3&9999",
"#wX&4#frf60$:w,y@-=52...;apa==;u5;=eq2e==xa1x=;a0:$4$$3X3$<o+&+&",
":OX:049 >4,XwX$y@-=52*q@->hbt5-ya-55jp55sq1dqs-1,833>>848,wi  % ",
"6i%67<$$>>$lrz<p@q=52..-0,gbb88888888888888888w$$6kz60:$$$$0$:,>",
"7  % %%%i7:or+8y@.@52e-$hgggbvvvvvvvvvvvvvvvvvvg><of<w9%%iXO#i83",
"6%       6:rr74y@.@52@.t0gggghhhhhhhhhhhhhhhhhh,$<of<8#7#w4#7#83",
"6%      %6:r+O8y@*.52@.;10gb4dd>2dddu>ddddppdudp$#of<8# %3<% #83",
"6%       7:r+O8y@**52@.*;10y5@;u5;=;q2e@=et1x.xa>oo%3w#  %%  #83",
"6%      #O$l+O8y@**52@*qead.=.@us@*.-2=..et1e*ea>&oi38#      i8O",
"6%     %3$$o+O8y@.*su@=q@t1;.q@us@*q-2=..;a1;*ea>ooz<8#     %68i",
"6%     #OX:3+#4y@.=52@.q=t1;.-@us@-=-2=..;t1;*ea>9of<8#     #34o",
"6%      %6:9&#4y@.@52@..@t1;.*eus@*=-2=*.;t1;-=a,<of<8#     %34&",
"6%   #% %6:lrrOp@.=52=..;t1;..@us@.=-2*q.et1e-ea,<rz<8#     %34&",
"6%  %w<# 6$9i+3y;=e-u;==xt1x==;u5;=eq2===xa1x.xa>6i&Ow#     %34&",
"6% %w84$ 70,,,002y2y02yy2pp2yy20p2y2y02yy2p>2y2p0>,,0X#     %34&"
};
