/* XPM */
static char *_493c4b182bf4eb9f5d4d12a8c03a979Z9rZvwK6S4S8IqEM[] = {
/* columns rows colors chars-per-pixel */
"64 64 244 2 ",
"   c #3B1C15",
".  c #3D1D1B",
"X  c #341D18",
"o  c #2F1917",
"O  c #3C2315",
"+  c #3C221B",
"@  c #3D2C1D",
"#  c #352619",
"$  c #3A3218",
"%  c #151D2C",
"&  c #1C1C2C",
"*  c #1B1827",
"=  c #161E33",
"-  c #1C1C33",
";  c #191F3A",
":  c #0F1D2D",
">  c #231D2A",
",  c #341C23",
"<  c #241D33",
"1  c #2C1F39",
"2  c #301E36",
"3  c #1A232C",
"4  c #1C2333",
"5  c #1C233C",
"6  c #1D2B3B",
"7  c #1A2736",
"8  c #1E3039",
"9  c #23242E",
"0  c #2B282A",
"q  c #3C2524",
"w  c #3D2C24",
"e  c #3C2C2B",
"r  c #372727",
"t  c #3C3224",
"y  c #3D322C",
"u  c #373424",
"i  c #242534",
"p  c #2B2534",
"a  c #242A36",
"s  c #2B2B35",
"d  c #24263B",
"f  c #2A263B",
"g  c #242A3C",
"h  c #2A2A3C",
"j  c #312933",
"k  c #3E2D32",
"l  c #312A3B",
"z  c #362737",
"x  c #2A313C",
"c  c #393534",
"v  c #431D1A",
"b  c #4F1D04",
"n  c #5D2504",
"m  c #5D250B",
"M  c #5C2C0C",
"N  c #572806",
"B  c #583408",
"V  c #44241C",
"C  c #4A251D",
"Z  c #442A1D",
"A  c #4B2A1D",
"S  c #462816",
"D  c #5D2B13",
"F  c #5D2411",
"G  c #44321D",
"H  c #5C3212",
"J  c #583615",
"K  c #482106",
"L  c #63250B",
"P  c #6A240D",
"I  c #642A0B",
"U  c #632707",
"Y  c #632512",
"T  c #632A15",
"R  c #652A17",
"E  c #623214",
"W  c #663317",
"Q  c #63310D",
"!  c #471E22",
"~  c #442524",
"^  c #4A2523",
"/  c #442B24",
"(  c #4A2B24",
")  c #44262A",
"_  c #4B262B",
"`  c #442B2B",
"'  c #4A2B2A",
"]  c #522927",
"[  c #433123",
"{  c #43322C",
"}  c #4B332B",
"|  c #483425",
" . c #432D32",
".. c #4A2C32",
"X. c #462935",
"o. c #443532",
"O. c #583D3C",
"+. c #5B433C",
"@. c #714B31",
"#. c #251F43",
"$. c #1E2A43",
"%. c #1D2848",
"&. c #1D3241",
"*. c #242642",
"=. c #2A2642",
"-. c #252B43",
";. c #2A2B43",
":. c #252C4A",
">. c #2B2C49",
",. c #252549",
"<. c #302C46",
"1. c #233141",
"2. c #24304B",
"3. c #2B3147",
"4. c #343547",
"5. c #3B3D5B",
"6. c #373D57",
"7. c #262952",
"8. c #3A3E63",
"9. c #383F66",
"0. c #5A3E45",
"q. c #423D5C",
"w. c #583B57",
"e. c #603F48",
"r. c #433D66",
"t. c #35435C",
"y. c #3B435B",
"u. c #3A4558",
"i. c #3C4363",
"p. c #3B436A",
"a. c #374564",
"s. c #3D4571",
"d. c #5A4244",
"f. c #574347",
"g. c #45425B",
"h. c #594551",
"j. c #614347",
"k. c #434263",
"l. c #484163",
"z. c #BD6D3A",
"x. c #D6762D",
"c. c #D96E36",
"v. c #CD7434",
"b. c #CC753D",
"n. c #CC7A3D",
"m. c #C77B3B",
"M. c #D47434",
"N. c #DB7535",
"B. c #D47B35",
"V. c #DB7936",
"C. c #D4753C",
"Z. c #DB753B",
"A. c #D47A3C",
"S. c #DB7A3C",
"D. c #CD712D",
"F. c #E37C2C",
"G. c #EC7B2D",
"H. c #EA762A",
"J. c #F27B2D",
"K. c #E37B34",
"L. c #EC7B34",
"P. c #E3743D",
"I. c #E17B3B",
"U. c #EC7D3B",
"Y. c #E97535",
"T. c #F37A34",
"R. c #F37B36",
"E. c #BA6E4A",
"W. c #AD764A",
"Q. c #B4744E",
"!. c #BA774C",
"~. c #B47554",
"^. c #BB7353",
"/. c #B97954",
"(. c #B97758",
"). c #B27152",
"_. c #A57B63",
"`. c #CD7543",
"'. c #CD7B43",
"]. c #CD7649",
"[. c #CD7C4A",
"{. c #C57746",
"}. c #D47643",
"|. c #DB7543",
" X c #D37A44",
".X c #DA7A44",
"XX c #D4764A",
"oX c #DA7649",
"OX c #D47B4B",
"+X c #DA7B4B",
"@X c #C07653",
"#X c #D67A52",
"$X c #D86F40",
"%X c #E07B41",
"&X c #CE803D",
"*X c #D7813A",
"=X c #E6822E",
"-X c #E88436",
";X c #F38336",
":X c #BC9C66",
">X c #BC8368",
",X c #BAA161",
"<X c #CC8144",
"1X c #CA8147",
"2X c #D28245",
"3X c #D2814A",
"4X c #D38352",
"5X c #DC9D58",
"6X c #C9885C",
"7X c #E59C4C",
"8X c #E59D57",
"9X c #F48542",
"0X c #DBA14D",
"qX c #DDA454",
"wX c #DCAA56",
"eX c #DDA45B",
"rX c #DCAB5B",
"tX c #D6AA56",
"yX c #DCB15A",
"uX c #E3A34D",
"iX c #EBAB4A",
"pX c #FAA74B",
"aX c #F7B44B",
"sX c #E3A455",
"dX c #EBA453",
"fX c #E3AA55",
"gX c #E4A35B",
"hX c #EAA45A",
"jX c #E3AA5C",
"kX c #EBAA56",
"lX c #FBA952",
"zX c #F8B352",
"xX c #C99C68",
"cX c #C99D72",
"vX c #D09366",
"bX c #E39F61",
"nX c #DDAA62",
"mX c #DFA662",
"MX c #C9A373",
"NX c #C8A36A",
"BX c #E2A362",
"VX c #E4AB62",
"CX c #E7AA65",
"ZX c #E6B168",
/* pixels */
",.*.=.;.d d ;.f g g u.t.:.:.:.*.:.:.1.8 a.p.p.p.>.*.4 3 4 = g g g g 7 8 *.;.d g g d ;.f =.;.:.$.g a h *.;.=.d h a g g 5 ;.d g g ",
"*.l  ./ } w [ e s g u.t.:.:.*.-.,.,.g 6 i.i.i.i.>.g 4 % - i e ` ` / / r l z ) / ` / / e l ;.:.h q / ~ ` /  .l l r q / { t y h -.",
"g e W.<XqXjXeXMXt a ;.>.=.=.g g *.;.g g y.i.i.i.g i % % & X (.`.XX}.A.!.` ) (.OX X'.eXxXe i a e ^.+Xn.'.8XxX` ) /.2X8XfXrX:Xc 5 ",
"a @ '.-XdXkXiXqXH / ~ ~ _ _ / / ` ' ' ' O.O.0.0.[ $ @ # > . }.L.|.Z.L..XV V +XU.Z.A.lXVX[ h i ' }.U.M.*XlXCX/ ~ b.=XpXdXzXrXt g ",
"9 (  XA.M B uXpXB. XOX[.XXoX}. X X X}.b.2XOXOXOXfXqXeXcXe ~  XS.n m |.}.( V b.Z.R Y S.`./ g d ` }.S.D H D.m.( ^ .XV.N B uXjX[ i ",
"h V `.|.m Q 7XpXA. X'.'.XXXX X X X X XA.'.'.XX X7XiXzXCX' V n.B.I n Z.OX~ (  XC.m Y P.oX' *.;.'  XZ.F m B.n.Z Z C.Z.n N dXgX/ h ",
"5 ` XXU.Z.V.G.*XI V   . X + / / ` ' ( / e e  .' G B fXeXS A A.J.x.V.L.XX. . b.-XB.B.L.}.e.q.i / OXU.%XZ.G.A.A A +XY.U.N.-X[.` *.",
"*.k (.XX.X|.}.^.` i & - = = g ;.;.;.h g %.%.-.*.9 G wXrXS V @XZ.J.H.S.(., , !.B.=XF.Z.^.h.6.;.` (.|.G.H.N.!.w / (.|.R.J.Z.~.k -.",
"h p / ( C ^ ^ ) l *.5 5 ; 5 5.i.y.y.;.;.i.y.g g *.e nXrXZ p e D S.M.m X < < q M A.A.T ) g.t.-.s ` T N.V.M w x h k R .X|.T q h -.",
"f j / Z ( V ' q l *.5 5 ; $.5.i.y.y.>.>.5.5.;.-.,.{ eXjX/ d ;./ '. XV > & - p ]  X X( d y.t.g g f ^ A.A./ g g -.d ' ].`.( p g -.",
"=.` W.m.&Xm. X/.e h d d d *.y.i.y.6.;.d ;.;.g g d / VXVX@ a g /  X}.  * > < 2 C A.A./ g -.g ,.*.d ~ .X X( *.-.-.a (  X}.( i g g ",
"=.' &X=X*XA.G.V.T ( ( ( ' ' O.0.d.O.' ~ ) ) ` ` ^ W 7X8X[ s ` D .XC.L v v V ] R V.v.} i c { w { ~ T N.}.~ d :.-.a A  X X' g h a ",
"=._ n.v.T L K.G.Z.`.'.'. XXX#X+X4XOXOXXXXXOX[.'.oXZ.;XA./ e ~.C.L.U.Z.oX XA.}.Z.J..XO t MXCXjXgX3XZ.R.oX^ >.5.g.f (  X X/ d h f ",
"=.~ 3X.XY Y K.J.|.]. X'.'.`.oX}.}.`.}.XXXXXX X'.oXZ.J.M./ ~ +XL.S.b.+XXX'.'. X}.C.@XZ @ mXdXuXsXb. XoX^. .f 6.y.;.(  X X/ d >.>.",
"*./ {.L.Z.P.L.Z.F ~ ( / Z Z ( ^ _ ( / Z C C / / ~ T v.m.Z ( |.I.U S ( / ` ` ~ ~ V o > O qXjXJ @ | / O ` p ;.1.6 *.~  X'./ >.8.p.",
"g e ~.3X}.C.+X^.) d ;.f a s e / ^ ~ @ u j p h h f / '.2X/ C .XC.S e q / ) e / ` * 4 * O gXeX/ i g s ` ( ' / w e l _  X'.~ ,.8.s.",
";.h e } V ( _ X.l *.;.>.7 y ~.'.m.<XBXMX` f g h f V A.A.~ ) .X|.A ~ (.`.[.1XgXxX# % >   '.'.( f h e (.`.}. Xm./.) ^  X X' *.:.7.",
"*.*.*.g g h *.,.:.:.*.*.6 { [.U.S.v.lX5XJ [ [ [ V W x.A./ ~  X.XV ^ }.9XA.A.lXsX# 3 & . '.'.( f f ~ `.;XS.Z.;Xb.^ ^  X X( h :.:.",
"%.2.6.u.-.*.i.i.a.y.;.h h ( }.Z.P U B.-X0XwXfX8X2XA.G.v.Z A }.}.^ ( XXC.m n B.m.# % - . [.[.` d h /  XM.L U C. X( / '.n.( f :.-.",
"%.:.5.y.-.*.i.a.i.t.a a i ^ |.P.P P D.x.uXyXjXhX'.C.L.A.S A .X X^ V  XZ.L I B.n.# - - q [.'.' -.;./ n.V.I I I.}./ / '.'.( h -.-.",
">.>.*.d h ;.,.,.>.>.1.x - v |.T.Y.c.9XA.J $ @ / ( W M. XV V A.A.Z A A.J.Y.c.L.'.( ;.=.~ '.'.O.6.y.d.[.;XZ.c.R.oXA /  X'.) ,.;.h ",
"f p  .` ~ / ` k l g g g & ) E.Z.|.+XXX~.y a g g i V 3X2XV A A.n.Z @ !.V.R.R.Z.!.` ;.<.'  X Xd.k.i.f.(.C.-X-XZ.@Xw Z  XOX) *.h h ",
"=. .~.<Xm.'.bXcXw 7 g g % * ~ v ^ ] ~ e s a a h ;.` bX8XS A  X+X~ p  .D |.C.L / 0 7 s (  X}.d.5.k.g...D gXqXJ e s /  X X/ a h g ",
"=.` '.F.S.A.pXhXH / ` / +       Z ( / | / / / ` p { BXfXB B C..XT ~ ~ D }..XI C | Z Z M .XXXd.5.5.5.f / rXrXt g a / <X'./ a g -.",
";./  XM.I I x.G.Z.XX#XOX`.'. Xn.fXfXwXgXm. X`.~.e t rXaXuXdXK.U.A.'.A.S.L.L.P.C.}. Xb.A.K.].} d d < < + jXqX{ d a [ gXBXw g *.>.",
"d / C.I.U L N.G.|.XX#X#XOXOX Xn.sXjXjXjX3XC.U.`.@ y :XrXjXgX<Xm.n.n.A.C. XOX XC.}.+X'.A.-X1XV h & 4 & ~ gXgX{ f p | qXeXy -.*.>.",
"h ( C.T.Z.C.L.C.D ' 0.f.0.O.' / ` { u w ~ R Z.}./ 9 o./ @ Z @ @ Z Z / ^ ~ ~ Z Z ^ ^ ^ M hXeXZ > 4 % &   {.[.j.k.g.+.fXjXf.a.>.*.",
"d e @X.XOX'.'./.e ;.t.i.k.q.;.*.*.>.$.-.f ^ oXZ.D ( ~ ~ / / Z Z Z / ^ ^ _ ~ Z Z ( ( C M qXfXE | # # + b n.[.O.q.5.+.uXfXf.5.>.>.",
":.h q ^ ~ ^ / q l ,.y.i.p.8.,.*.;.>.-.-.i A C.H.Z.}.oXXX+X.X|.|.|.oXoX+XOX+X X.X|.}. X&XpXzXuXgX<X'.'.A.-X1X' h ,.` <X<X' ;.6 6 ",
",.<. .V ' ( / { l ;.y.i.p.8.:.-.g h *.;.i ( A.G.Z.}.+XoXoXoX$X|.|.|.oX XOX}.oXZ.T.T.B.<XeXqXCX8X'. X X`.<XW.w d ;.` b.b.^ h 1.&.",
"=.r (. X X'.gXxXw p g :.:.>.a a a g - - &   v.V.I ^ / / ~ ^ V Z ^ ^ Z Z Z Z Z m Z.Z.n S Z [ / / ( V ] ^ ( / j h d /  XoX^ h t.a.",
"=.`  XL.A.A.lXdXQ A / / ' ` / t u y . . v b A.A.Z 0 e / ( ( / Z C Z G $ $ $ S I N.S.I S A Z / / / ( ^ ^ C Z ( ( / D P.|.^ ;.i.a.",
"-./ OXZ.n I M.T.N.A. X'. X'.BXnXnXeX<Xb. XS.L.`.Z ` ~.+X X X X X Xn.fXwXtXwX2XN.J.H.I.A.}. X`.'. X X}.OX'.'. X}. XV.T.Z.^ *.i.a.",
"6 q oXZ.m U P.L.S.C.'. X'.<XBXnXVXmX2XA. X}. X/.w Z OXU.M.n.+X.XC.n.jXwXyXrXn.Z.H.T.M.A..XZ.L.K.S. X XOX'.'.OX}.}.C.}.E. .,.a.a.",
"*.'  XL.S.M.G.S.E / ~ ( / Z / / w [ Z ( ' / O X > . }.Z.E / / ^ A ] Z [ w e ` T }.C.M A A U A.M.D ( ( ( ^ / ' ' ` ) ..X.d %.>.,.",
";.q ~. X'.'. X!.r i X.~ Z Z V ` s a a a h i 3 3 & . oX+XV 9 ` ^ A V / e p ;.;.~ OX[.( i p A 2X2XV f h ;.;.;.d -.%.:.,.,.2.2.,.=.",
"4 9 r . ` @ ( / l e (.+Xv.C.S.!.~ h h g h p & % % X .X|.( ` ^. XgXVXVXxXt i i } b.+X/ -.>./ BX5XZ h 6.i.y.6.;.*.$.:.-.:.t.t.;.h ",
"% = ; 5 ,.-.a s 7 ` ].Y.%XI.G.N.I / } / [ | + q # M M.C.A C  X-XsXfXaXkXB Z Z M S.n.' d *.{ nXZXG ;.i.s.i.u.;.;.,.:.-.1.y.u.;.h ",
"d - 6.5.q.k.g g g ` #XZ.L U V.G.S.3X8XfXrXqX'.'.[.b.L..X^ ( `.v.M B fXlX*Xv..XZ.G.'.+ & - # wXwX[ ,.9.p.i.u.h ;.f =.*.d a h d <.",
"- d y.i.k.8.:.-.g ' `.|.R m A.F.C.'.gXjXjXgX X X'.OX}.^.` V 3XA.m M 7XlXB.v..XZ.L.b.V & & + sXsX[ ,.8.i.i.y.g j ` ^ ' ' / { p ;.",
">.,.y.i.a.i.2.-.a Z  XL.S.S.-X XF   ( | / / A A ( ( ~ ` 0 Z [.I. XS.L.I.I A ] Y A.'.. < * V A.A./ a f h g g a w !. X}.'.BXcXe ;.",
"*.3.6.u.i.t.-.g a o.Q.+X Xm.[.)., & i s r / } C S + j a s } ~.'.`. X.XE.' p 1 ' '.'.. < > V C.N.M / ( ( / / Z M .XL.S.S.lXBX{ d ",
"2.-.,.>.d a -.5 -.i  .'     + r * 4 a y cXZX5XBX&X!.' f h 9 ` Z Z Z ( { a -.f ~ gXgX/ d g /  XL.A.[.#XXX X X XS.Y.M.I I B.'.` -.",
":.h  .~ ' / } c h *.f f i 4 & & 4 4 7 t eXzXBX8X=XS.m ^ ' ' V S S S Z / y e } H dXqX[ d g / `.L.C.`.XXXX}. XC.Z.L.Z.U I N.A.` *.",
"a e !.+XXX[.BXNXw i p p h h i a i a 4 $ wXfXJ M B.H.|.+XXXoX X XA.A. X X<Xm.gXhXpXqX{ -.a ( XX|.T Z _ ' ( ( / D S.L.S.M.G. Xq :.",
"h /  XL.Z.C.pXhXH ( A Z ( / / [ } { 0 [ 0XuXN M V.L.Z.OXXXXX X X XC.b.'.'.<XgXdXaXfXt g a ( XXXX( p d d d g d e /.b. X XA.!.k $.",
"g q OXM.I I N.L. X'.m.n.'.3XBXVXeXxXy / 2X=X*XB.L.%Xm _ 0.h.d.j._ _ / Z O   + N uXqXG h y.d.OX X( f i - 4 5 d l q } ~ v A ~ f 2.",
"g / OXZ.U U Z.L.|.OXm.2Xm.'.BXsXzXjX/ ) ^.+Xb.A.A.!.~ f a.p.8.y.>.=.-.7 & i * O qXjXS i y.d.'.'.( f i - = 5 d l ` V ( ^ A q 4.%.",
"g / `.L.S.Z.U.}.R ( Z Z / / / H fXjXS j ) _ ' ( A @ j h 5.p.p.i.;.d ,.*.- & * O m.<X( p h / gXhXZ i > - - ; d e !. XXX'.hXxXe -.",
"6  .~. X X`.[.(.~ i h g a h i Z gX7XE V _ _ ! ^ C A Z / +.d.0.f.` / ` ) ~     N A.'.( h h [ jXuXB Z     . . / D S.L.S.A.lXgX} d ",
"1.9 o./ ( ' ' e x -.i.i.k.g.h (  X=Xv.m.'.[. XoXoX}.`.'. X}..X`.'.'.XXXX}. XC.K.L.`.` g 6 u ZXzXjX5XOX}. XC.}.C.L.M.U n B.'...,.",
"-.g ;.h f f g g -.-.a.i.k.q.*./ }.G.A.3X[.3X XoXoXXX+XC.G.G.I..X'.'.oXoX X.X|.P.L.'.` 6 &.c :XeXnXeX[.`.A.C. X.XU.S.U U x.'.' #.",
"-.*.h h 4 3 3 % h ;.:.:.:.:.-.` OXA.@.O.d.d.` ' ' ^ V E C.C.T V ' ( ( ( ( ( ] Y |.m./ a *.d c { u y / ' ' V ~ D A.K.S.M.G.A.~ >.",
">.>.;.;.- 4 7 7 f f :.:.:.-.%.e OXOX+.y.k.i.*.g h f s / '.OX~ h f f a i p f 1 _ OX'.[ a >.>.5 g g 1.-.d h f h ` ~.`.OX+XA.!.) d ",
"*.>.r.r.< * : : *.>.5.k.i.t.2.` }.}.d.i.i.6.;.a h p g ' XXOX/ a f =.g g x h f _ XXOX+.g.q.q.h h a g 6.k.l.q.;.p ~ ] V V / e f >.",
"*.=.w.0.~ O # 0 a ,.r.r.i.y.g /  X+X0.6.h.d./ / A ' z ) OXOXV j  .' ` w [ w p '  X[.d.y.k.q.;.a h h y.g.q.q.>.j / C ( ( | w 4.d ",
"8 e (.#XOXm.jXxXy *.>.,.*.h 9 A }.+X^ ` /.'.3X'.N.].~ ^ OX`.V q !.3X'.<XjXxX{ Z gXBXf.5.i.5.*.g =.;.h h h h g e W. X}. XgXNX@ a ",
"7 [ XXY. X*XpXdXH ~  .X.) ( A I Z.}.C V  X-XC.S.J.F.R Y C.C.R I S.L.A.B.lXeX[ @ jX0X@.f.f.d.{ ~ ` ' ( ( ( / / D *XF.S.S.pXeX[ 3 ",
"3.q OXZ.n U *XF.S.}.[.#XOX X XC.U.+X( ( '. XY L M.;XS.A.L.L.c.P.L.N.I n B.'.w o.tXaXsXBX3X'.'.'.'.OXOXOX X}.}.S.F.B.N K 6X6Xe ;.",
"*.` +XN.n n N.G.N. X].[.`.}.+X XOXQ.~ / {..XP L C.K.v. Xb. XoXZ.L.Z.P P S.'.q 0 ,XtXfX8X Xb.'.'.'.'.`.`.`.`.b.C.K.B.b K 6X>Xk d ",
";./  XL.S.I.H.K.I ] / w Z ( +.+./ k h ` #XU.c.I.L.A.W ( ( ( ^ T  XL.P.P.R. X/ x u # # + V ( / / / ( / / ` ~ ~ F D.K.v.z.4X~.r >.",
"d ) Q.}.`.}.M.@Xq h g g a h 6.6.-.d -.k ~.`..XC. XQ.q d d h d e ~.{.}.oX}.~.o.4 % % % - f h g -.f f g g *.d d r W.4X4X4XvX_.j g ",
"6 h  .` ..` ( ` h -.,.-.h g :.:.*.>.*.h  ./ / / ~  .p 3.,.*.3.s r } ^ ( ..k s g 4 7 = 5 *.;.*.-.;.,.-.-.g g g s w } ' ..o.c s g ",
"g g -.*.*.,.d g :.%.-.>.;.,.:.%.:.*.;.g ;.g a d *.;.-.g -.-.-.g g i s i *.g g a - 4 = 5 *.>.*.*.:.:.-.-.h h g g a 4 h d 6 g g -."
};
