/* XPM */
static char *b52aaee073304368df1e0468259c0d5elrviH0Wmpjzrim8m[] = {
/* columns rows colors chars-per-pixel */
"64 64 166 2 ",
"   c #092D1F",
".  c #162D1D",
"X  c #1A2F1D",
"o  c #01311D",
"O  c #0C311E",
"+  c #15321C",
"@  c #19321C",
"#  c #212F16",
"$  c #222E1E",
"%  c #282F1F",
"&  c #24321E",
"*  c #042D23",
"=  c #0D2D24",
"-  c #012D2C",
";  c #0A2C2B",
":  c #132D25",
">  c #1B2C24",
",  c #152C2B",
"<  c #1B2D2A",
"1  c #023124",
"2  c #0C3224",
"3  c #01312B",
"4  c #0B3328",
"5  c #143224",
"6  c #1B3324",
"7  c #13312B",
"8  c #1B312A",
"9  c #012E33",
"0  c #1B2D31",
"q  c #003133",
"w  c #06313A",
"e  c #163031",
"r  c #222D23",
"t  c #282E20",
"y  c #222C2C",
"u  c #233325",
"i  c #223229",
"p  c #293028",
"a  c #7F2815",
"s  c #851F10",
"d  c #AD1F0E",
"f  c #B31C0B",
"g  c #AA1F12",
"h  c #8B260E",
"j  c #86280E",
"k  c #94250E",
"l  c #9B220C",
"z  c #93290D",
"x  c #9C290F",
"c  c #862514",
"v  c #8E2611",
"b  c #802812",
"n  c #892913",
"m  c #942512",
"M  c #9B2212",
"N  c #922915",
"B  c #9C2A10",
"V  c #972618",
"C  c #A62307",
"Z  c #A92205",
"A  c #A5230E",
"S  c #AB230D",
"D  c #A52A0B",
"F  c #AD2A0E",
"G  c #B2240F",
"H  c #BA240E",
"J  c #B4290C",
"K  c #A42314",
"L  c #AB2312",
"P  c #A42813",
"I  c #AD2A13",
"U  c #A62518",
"Y  c #AC2318",
"T  c #A62F1B",
"R  c #B42413",
"E  c #BC2512",
"W  c #B22914",
"Q  c #BE2810",
"!  c #B32318",
"~  c #B9251A",
"^  c #B72E1B",
"/  c #BC2B1A",
"(  c #A73117",
")  c #AA311D",
"_  c #B3321D",
"`  c #B43022",
"'  c #C32816",
"]  c #CF2D16",
"[  c #C52219",
"{  c #C62A1B",
"}  c #CC2D1D",
"|  c #DE2C12",
" . c #DA2B16",
".. c #D52F19",
"X. c #D42E18",
"o. c #D42D1A",
"O. c #D42F1B",
"+. c #D62C1D",
"@. c #D42D1D",
"#. c #D42D1A",
"$. c #DB2E1E",
"%. c #DF2E1C",
"&. c #DE2F1E",
"*. c #D82E1B",
"=. c #C73617",
"-. c #CE3015",
";. c #CB3415",
":. c #CE3016",
">. c #C6311D",
",. c #CF321F",
"<. c #CF331B",
"1. c #D73214",
"2. c #D43017",
"3. c #D03516",
"4. c #D53417",
"5. c #DC3314",
"6. c #D2311B",
"7. c #D1301C",
"8. c #D3301D",
"9. c #D2321C",
"0. c #D2331D",
"q. c #D7321F",
"w. c #D2321B",
"e. c #DE321E",
"r. c #DF331D",
"t. c #DE3119",
"y. c #E82C0F",
"u. c #E2320B",
"i. c #E42F10",
"p. c #E62C15",
"a. c #E42C14",
"s. c #E92B12",
"d. c #E62A1E",
"f. c #E32D1F",
"g. c #E52C1B",
"h. c #E92E1B",
"j. c #EB2E1A",
"k. c #E9281F",
"l. c #EC281C",
"z. c #EF2E1D",
"x. c #EA2A1C",
"c. c #F02E15",
"v. c #F22D1E",
"b. c #E33112",
"n. c #ED3016",
"m. c #E5301A",
"M. c #EA311C",
"N. c #EF301E",
"B. c #EE311A",
"V. c #F23015",
"C. c #F0301C",
"Z. c #CC2F20",
"A. c #CB2F23",
"S. c #D42E22",
"D. c #D92F20",
"F. c #D53121",
"G. c #D23122",
"H. c #DB3124",
"J. c #D43428",
"K. c #EB2A21",
"L. c #EC2A20",
"P. c #EF2F20",
"I. c #E92C21",
"U. c #F02F20",
"Y. c #E13020",
"T. c #F23122",
/* pixels */
"* 1 1 * 1 * * 1 1 1 3 * 1 3 = 9 * 1 = * 1 * ; 3 1 3 o - 1 1 - * * 1 = * 1 * ; 3 1 3 o - 1 1 - * * 1 = * 1 * ; 3 1 3 o - 1 1 - * ",
"> < > : > : : : 4 , w 3 r 5 + 7 : < > > 5 : > = ; 9 u y 2 : : > : < > > 5 : > = ; 9 u y 2 : : > : < > > 5 : > = ; 9 u y 2 : : > ",
"m m m M m m m V U s X # / } A k m m M k m M M n @ u ( { K M z m m m M k m M M n @ u ( { K M z m m m M k m M M n @ u ( { K M z m ",
"I L L L L L L S ! m 2 2 F.z.R S L L L L P R Y m = < 9.N.~ ! D L L L L L P R Y m = < 9.N.~ ! D L L L L L P R Y m = < 9.N.~ ! D L ",
"S S S S S S S d A x , < X.| S D S C S S C S L k < 6 4.i.S g Z f S C S S C S L k < 6 4.i.S g Z f S C S S C S L k < 6 4.i.S g Z f ",
"R H E R S L L R S z = < F.h.[ L H G E R S L L m , > X.p.Q ! I I H G E R S L L m , > X.p.Q ! I I H G E R S L L m , > X.p.Q ! I I ",
"r.%.Y.@.E L L g A M < p ,.M.L.K.r.%.f.@.R R L M > & 9.P.h.d.k.l.r.%.f.@.R R L M > & 9.P.h.d.k.l.r.%.f.@.R R L M > & 9.P.h.d.k.l.",
"2.X.q.>.A k N V N v = . ^ ;.6.6.9.X.$.{ P k m b = + _ Z.2.;.9.3.9.X.$.{ P k m b = + _ Z.2.;.9.3.9.X.$.{ P k m b = + _ Z.2.;.9.3.",
"+ < . r < 6 > , : :   o 5 r > 8 $ 8 . > < > : < * 2 > > 5 5 > 8 $ 8 . > < > : < * 2 > > 5 5 > 8 $ 8 . > < > : < * = 5 5 > > 8 8 ",
"- 9 6 u 2 O : : < < , 4 , < < : ; q 6 u 4 O 2 > 7 7 < < 7 7 > : ; q 6 u 4 O 2 > 7 7 < < 7 7 > : ; q 6 u 4 O 2 > , , < < < , , = ",
"O % ) { M l m m k k k k k l k j . & T { K M m k m v k l k m m h . & T { K M m k m v k l k m m h . & T { K M m k v h m k k l m k ",
"- > J.T.~ R Y L S S R R S R S l , X G.U.~ R U L R L S G S R L l , X G.U.~ R U L R L S G S R L l , X G.U.~ R U L R R R R G S S S ",
"q + G.b.C C d f A A S L A L Y m e + 0.b.S S S f d A A L L L Y m e + 0.b.S S S f d A A L L L Y m e + 0.b.S S S f S S d L K P L L ",
"- . @.s.Q W ~ I R L E E A L Y N , X X.s.Q R W W H S R ~ A K U V , X X.s.Q R W W H S R ~ A K U V , X X.s.Q R W W F G R ~ L K L R ",
"; r G.B.I.g.l.g.m.t.g. .J G f l > & G.B.I.g.K.k.m.t.m. .H S L l > & G.B.I.g.K.k.m.t.m. .H S L l > & G.B.I.g.K.k.m.h.m.X.H S S S ",
"- 6 ` 6.$.;.2.=.+.,.F.} B m M a : 6 ` ;.D.;.6.<.$.O.D.} P m N c : 6 ` ;.D.;.6.<.$.O.D.} P m N c : 6 ` ;.D.;.6.<.] @.F.{ P k m M ",
"o 2 > > 5 6 r 8 $ 8 . > < > : < * 2 > > 5 5 > 8 $ 8 . > < > : < * 2 > > 5 5 > 8 $ 8 . > < > : < * 2 > > 5 5 > 8 r 8 . y < > , > ",
", < y < 7 , : 4 ; q 6 u 4 O 2 > 7 7 < < 7 7 > : ; q 6 u 4 O 2 > 7 7 < < 7 7 > : ; q 6 u 4 O 2 > 7 7 < < 7 7 > : ; q 6 i 4 O 4 > ",
"h h k k k l l h . & T { K M m k m v k l k m m h . & T { K M m k m v k l k m m h . & T { K M m k m v k l k m m h . t T { U M k m ",
"R G G S S G S k , X G.U.~ R U L R L S G S R L l , X G.U.~ R U L R L S G S R L l , X G.U.~ R U L R L S G S R L l : > G.C.~ ! P L ",
"d d S L A Y Y m e + 0.b.S S S f d A A L L L Y m e + 0.b.S S S f d A A L L L Y m e + 0.b.S S S f d A A L L L Y m 7 5 w.u.L S C f ",
"G S R W A L L m , X X.s.Q R W W H S R ~ A K U V , X X.s.Q R W W H S R ~ A K U V , X X.s.Q R W W H S R ~ A K U V , . X.y.E R W W ",
"h.p.h.X.J S S k > & G.B.I.g.K.k.m.t.m. .H S L l > & G.B.I.g.K.k.m.t.m. .H S L l > & G.B.I.g.K.k.m.t.m. .H S L l < & G.N.M.g.K.k.",
"6.O.$.{ P m V c : 6 ` ;.D.;.6.<.$.O.D.} P m N c : 6 ` ;.D.;.6.<.$.O.D.} P m N c : 6 ` ;.D.;.6.<.$.O.D.} P m N c = @ ` } 2.-.G.;.",
"+ < . r < 6 > , * 2 > > 5 5 > 8 $ 8 . > < > : < * 2 > > 5 5 > 8 $ 8 . > < > : < * 2 > > 5 5 > 8 $ 8 . > < > : < * = 5 5 > > 8 8 ",
"- 9 u u 2 O : : 7 7 < < 7 7 > : ; q 6 u 4 O 2 > 7 7 < < 7 7 > : ; q 6 u 4 O 2 > 7 7 < < 7 7 > : ; q 6 u 4 O 2 > , , < < < : , = ",
"O % ) { M l m m m v k l k m m h . & T { K M m k m v k l k m m h . & T { K M m k m v k l k m m h . & T { K M m k v h m k k l m k ",
"- > J.T.~ R Y L R L S G S R L l , X G.U.~ R U L R L S G S R L l , X G.U.~ R U L R L S G S R L l , X G.U.~ R U L R R R R G S S S ",
"q + G.b.C C d f d A A L L L Y m e + 0.b.S S S f d A A L L L Y m e + 0.b.S S S f d A A L L L Y m e + 0.b.S S S f S S d L K P L L ",
"- . @.s.Q W ~ I H S R ~ A K U V , X X.s.Q R W W H S R ~ A K U V , X X.s.Q R W W H S R ~ A K U V , X X.s.Q R W W F G R ~ L K L R ",
"; r G.B.I.g.l.g.m.t.m. .H S L l > & G.B.I.g.K.k.m.t.m. .H S L l > & G.B.I.g.K.k.m.t.m. .H S L l > & G.B.I.g.K.k.m.h.m.X.H S S S ",
"- 6 ` 6.$.;.2.=.$.O.D.} P m N c : 6 ` ;.D.;.6.<.$.O.D.} P m N c : 6 ` ;.D.;.6.<.$.O.D.} P m N c : 6 ` ;.D.;.6.<.] @.F.{ P k m M ",
"o 2 > > 5 6 r 8 $ 8 . > < > : < * 2 > > 5 5 > 8 $ 8 . > < > : < * 2 > > 5 5 > 8 $ 8 . > < > : < * 2 > > 5 5 > 8 r 8 . y < > , > ",
", < y < 7 , : 4 ; q 6 u 4 O 2 > 7 7 < < 7 7 > : ; q 6 u 4 O 2 > 7 7 < < 7 7 > : ; q 6 u 4 O 2 > 7 7 < < 7 7 > : ; q 6 i 4 O 4 > ",
"h h k k k l l h . & T { K M m k m v k l k m m h . & T { K M m k m v k l k m m h . & T { K M m k m v k l k m m h . t T { U M k m ",
"R S G S S H S k , X G.U.~ R U L R L S G S R L l , X G.U.~ R U L R L S G S R L l , X G.U.~ R U L R L S G S R L l : > G.C.~ ! P L ",
"d d S L A Y Y m e + 0.b.S S S f d A A L L L Y m e + 0.b.S S S f d A A L L L Y m e + 0.b.S S S f d A A L L L Y m 7 5 w.u.L S C f ",
"G S R W A L L m , X X.s.Q R W W H S R ~ A K U V , X X.s.Q R W W H S R ~ A K U V , X X.s.Q R W W H S R ~ A K U V , . X.y.E R W W ",
"h.p.h.X.J S S k > & G.B.I.g.K.k.m.t.m. .H S L l > & G.B.I.g.K.k.m.t.m. .H S L l > & G.B.I.g.K.k.m.t.m. .H S L l < & G.N.M.g.K.k.",
"6.O.$.{ M m V c : 6 ` ;.D.;.6.<.$.O.D.} P m N c : 6 ` ;.D.;.6.<.$.O.D.} P m N c : 6 ` ;.D.;.6.<.$.O.D.} P m N c = @ ` } 2.-.G.;.",
"+ < . r < 6 > , * 2 > > 5 5 > 8 $ 8 . > < > : < * 2 > > 5 5 > 8 $ 8 . > < > : < * 2 > > 5 5 > 8 $ 8 . > < > : < * = 5 6 > > 8 8 ",
"- 9 u u 2 O : : 7 7 < < 7 7 > : ; q 6 u 4 O 2 > 7 7 < < 7 7 > : ; q 6 u 4 O 2 > 7 7 < < 7 7 > : ; q 6 u 4 O 2 > , , < < < , : = ",
"O % ) { M l m m m v k l k m m h . & T { K M m k m v k l k m m h . & T { K M m k m v k l k m m h . & T { K M m k v h m l k l m k ",
"- > J.T.~ R Y L R L S G S R L l , X G.U.~ R U L R L S G S R L l , X G.U.~ R U L R L S G S R L l , X G.U.~ R U L R R R R G S S S ",
"q + G.b.C C d f d A A L L L Y m e + 0.b.S S S f d A A L L L Y m e + 0.b.S S S f d A A L L L Y m e + 0.b.S S S f S S d L K P L L ",
"- . @.s.Q W ~ I H S R ~ A K U V , X X.s.Q R W W H S R ~ A K U V , X X.s.Q R W W H S R ~ A K U V , X X.s.Q R W W F G R ~ L K L R ",
"; r G.B.I.g.l.g.m.t.m. .H S L l > & G.B.I.g.K.k.m.t.m. .H S L l > & G.B.I.g.K.k.m.t.m. .H S L l > & G.B.I.g.K.k.m.h.m.X.H S S S ",
"- 6 ` 6.$.-.2.=.$.O.D.} P m N c : 6 ` ;.D.;.6.<.$.O.D.} P m N c : 6 ` ;.D.;.6.<.$.O.D.} P m N c : 6 ` ;.D.;.6.<.] @.F.{ P k m M ",
"o 2 > > 5 6 r 8 $ 8 . > < > : < * 2 > > 5 5 > 8 $ 8 . > < > : < * 2 > > 5 5 > 8 $ 8 . > < > : < * 2 > > 5 5 > 8 r 8 . y < > , > ",
", < y < 7 , : 4 ; q 6 u 4 O 2 > 7 7 < < 7 7 > : ; q 6 u 4 O 2 > 7 7 < < 7 7 > : ; q 6 u 4 O 2 > 7 7 < < 7 7 > : ; q 6 i 4 O 4 > ",
"h h k k k l l h . & T { K M m k m v k l k m m h . & T { K M m k m v k l k m m h . & T { K M m k m v k l k m m h . t T { U M k m ",
"R G G S S G S k , X G.U.~ R U L R L S G S R L l , X G.U.~ R U L R L S G S R L l , X G.U.~ R U L R L S G S R L l : > G.C.~ ! P L ",
"d d S L A Y Y m e + 0.b.S S S f d A A L L L Y m e + 0.b.S S S f d A A L L L Y m e + 0.b.S S S f d A A L L L Y m 7 5 w.u.L S C f ",
"G S R W A L L m , X X.s.Q R W W H S R ~ A K U V , X X.s.Q R W W H S R ~ A K U V , X X.s.Q R W W H S R ~ A K U V , . X.y.E R W W ",
"h.p.h.X.J S S k > & G.B.I.g.K.k.m.t.m. .H S L l > & G.B.I.g.K.k.m.t.m. .H S L l > & G.B.I.g.K.k.m.t.m. .H S L l < & G.N.M.g.K.k.",
"<.O.$.{ P m V c : 6 ` ;.D.;.6.<.$.O.D.} P m N c : 6 ` ;.D.;.6.<.$.O.D.} P m N c : 6 ` ;.D.;.6.<.$.O.D.} P m N c = @ ` } 2.-.G.;.",
"@ < 5 y 0 : > = ; = > r 6 6 r i $ 0 + > < > = = ; = > r 6 6 r i $ 0 + > < > = = ; = > r 6 6 r i $ 0 + > < > = = = = 7 8 < < i 8 ",
"3 9 + X = + > : 5 5 > > 5 : : = ; 9 6 r 2 O 2 > 5 5 > > 5 : : = ; 9 6 r 2 O 2 > 5 5 > > 5 : : = ; 9 6 r 2 O 2 > 5 5 5 5 : : : . ",
"o t _ ] x z k M k k k M m V m c O & ) } U m m l k k k M m V m c O & ) } U m m l k k k M m V m c O & ) } U m m l m k m M l m l k ",
"- r S.j.R W Y L R P P L Y Y Y m ; X F.v.~ R P R R P P L Y Y Y m ; X F.v.~ R P R R P P L Y Y Y m ; X F.v.~ R P R L L L R L L L L ",
"; . 9.a.L S d S f A S S S S L l 0 @ q.i.S d Y f f A S S S S L l 0 @ q.i.S d Y f f A S S S S L l 0 @ q.i.S d Y f L S S S S S L S ",
"* . H.z.~ I I F E R R E S L L l , + 9.b.' R I P E R R E S L L l , + 9.b.' R I P E R R E S L L l , + 9.b.' R I P G H E ~ S K K L ",
"4 @ ,.j.x.p.j.a.m.t.r.o.J S L l < 6 ,.n.g.p.g.p.m.t.r.o.J S L l < 6 ,.n.g.p.g.p.m.t.r.o.J S L l < 6 ,.n.g.p.g.p.5.t.t.] J S A S ",
"1 r S.V.B.5.v.v.C.B.C.f.E L U M : u A.B.T.m.B.n.C.B.C.f.E L U M : u A.B.T.m.B.n.C.B.C.f.E L U M : u A.B.T.m.B.n.c.v.C.%.H S L L "
};
