/* XPM */
static char *_8cd7cd7d99d4d22d40f511f0089b0aa3N3RTeyRpKlSKiHm[] = {
/* columns rows colors chars-per-pixel */
"64 64 255 2 ",
"   c #6A2717",
".  c #742A1B",
"X  c #782A16",
"o  c #7D341D",
"O  c #6C311F",
"+  c #762D22",
"@  c #7B2D25",
"#  c #7D3424",
"$  c #7B342B",
"%  c #7C3A2C",
"&  c #773724",
"*  c #7D3932",
"=  c #6E2C20",
"-  c #7D432E",
";  c #892D1E",
":  c #86331F",
">  c #862E26",
",  c #833325",
"<  c #8A3425",
"1  c #833A24",
"2  c #84362A",
"3  c #8B352B",
"4  c #843B2C",
"5  c #8B3B2C",
"6  c #8B3C26",
"7  c #923D2C",
"8  c #953926",
"9  c #843C31",
"0  c #8C3D32",
"q  c #883734",
"w  c #933D33",
"e  c #903731",
"r  c #AD3E31",
"t  c #84412D",
"y  c #8C432D",
"u  c #8B472B",
"i  c #93422C",
"p  c #9A442D",
"a  c #844233",
"s  c #8C4333",
"d  c #8C4B35",
"f  c #8D463A",
"g  c #8D4A3B",
"h  c #874839",
"j  c #924434",
"k  c #9B4435",
"l  c #934B35",
"z  c #94453A",
"x  c #9D453A",
"c  c #934B3B",
"v  c #9B4B3C",
"b  c #9B4A35",
"n  c #8D5135",
"m  c #97533A",
"M  c #A4453B",
"N  c #A44B3C",
"B  c #AB4C3C",
"V  c #A74736",
"C  c #B34C3D",
"Z  c #BB4D3C",
"A  c #B34738",
"S  c #AB523D",
"D  c #A55139",
"F  c #B2513D",
"G  c #BC523D",
"H  c #B65C3F",
"J  c #A3442C",
"K  c #C4573D",
"L  c #D15A3E",
"P  c #934C42",
"I  c #9B4B43",
"U  c #945443",
"Y  c #9B5444",
"T  c #9B5A44",
"R  c #9D5549",
"E  c #9D5B4C",
"W  c #955946",
"Q  c #8E4F41",
"!  c #A44B42",
"~  c #AC4D42",
"^  c #AB4945",
"/  c #B34D43",
"(  c #BB4D42",
")  c #B44C47",
"_  c #A35444",
"`  c #AC5244",
"'  c #A45B45",
"]  c #A3544A",
"[  c #AC544B",
"{  c #A35C4C",
"}  c #AA5B4C",
"|  c #AA5C45",
" . c #B35344",
".. c #BB5344",
"X. c #B35A45",
"o. c #B3544B",
"O. c #B45B4B",
"+. c #BB5B4B",
"@. c #BC5846",
"#. c #A95C53",
"$. c #B95D52",
"%. c #9E614C",
"&. c #A4624A",
"*. c #AC634D",
"=. c #AA6A4E",
"-. c #B2644D",
";. c #BD634E",
":. c #BE6447",
">. c #A46353",
",. c #AC6353",
"<. c #AE6A53",
"1. c #AD6B59",
"2. c #A76859",
"3. c #B46552",
"4. c #BB6453",
"5. c #B56B54",
"6. c #BA6C55",
"7. c #B46D5B",
"8. c #BB6D5B",
"9. c #B7655A",
"0. c #B5735C",
"q. c #BB735C",
"w. c #BD795E",
"e. c #B77156",
"r. c #AD745A",
"t. c #B36E61",
"y. c #BB6E62",
"u. c #B36660",
"i. c #B47363",
"p. c #BC7463",
"a. c #BD7A64",
"s. c #BC7B6B",
"d. c #B97767",
"f. c #AD6F62",
"g. c #C25543",
"h. c #C45B44",
"j. c #CC5C45",
"k. c #C35649",
"l. c #C45B4B",
"z. c #CB5D4B",
"x. c #CC5645",
"c. c #D25C44",
"v. c #D35C4C",
"b. c #C75C51",
"n. c #D1584D",
"m. c #C56245",
"M. c #CB6146",
"N. c #C6614C",
"B. c #CB634B",
"V. c #C86B4D",
"C. c #D1614C",
"Z. c #D6654B",
"A. c #CC6353",
"S. c #C36C54",
"D. c #CD6B54",
"F. c #C26E5B",
"G. c #CB6C5B",
"H. c #C36356",
"J. c #D26453",
"K. c #D46B53",
"L. c #D76A58",
"P. c #C2735D",
"I. c #CC735C",
"U. c #C2795E",
"Y. c #C87558",
"T. c #D3755D",
"R. c #DB745D",
"E. c #D7775A",
"W. c #E4755C",
"Q. c #C76F64",
"!. c #C27463",
"~. c #C37B64",
"^. c #CB7C65",
"/. c #C2756B",
"(. c #C47D6A",
"). c #CA7D6C",
"_. c #CB7464",
"`. c #D37B64",
"'. c #D37D6B",
"]. c #D87865",
"[. c #C97D71",
"{. c #DB7E71",
"}. c #DA6E61",
"|. c #E37B65",
" X c #E57965",
".X c #BD8169",
"XX c #C48265",
"oX c #CA8366",
"OX c #C5836B",
"+X c #CB846B",
"@X c #CC896C",
"#X c #C58969",
"$X c #D3846C",
"%X c #D9866B",
"&X c #C58371",
"*X c #CC8573",
"=X c #CC8A73",
"-X c #CC8B7A",
";X c #C98776",
":X c #D38573",
">X c #DC8573",
",X c #D38B73",
"<X c #DB8C75",
"1X c #D38C7A",
"2X c #DB8D7B",
"3X c #DB8679",
"4X c #CD927A",
"5X c #D49273",
"6X c #DB9375",
"7X c #D5937B",
"8X c #DB947C",
"9X c #DD9B7C",
"0X c #D69B79",
"qX c #DF936F",
"wX c #E3836D",
"eX c #E7876B",
"rX c #F3896A",
"tX c #E48D7A",
"yX c #E88975",
"uX c #F28D78",
"iX c #E3957C",
"pX c #EA937C",
"aX c #E39A7C",
"sX c #E89579",
"dX c #F69779",
"fX c #D8926F",
"gX c #D78F82",
"hX c #DB9482",
"jX c #DC9B83",
"kX c #DA9885",
"lX c #DE9C90",
"zX c #E49582",
"xX c #E49C84",
"cX c #EB9C83",
"vX c #E39D89",
"bX c #EA9B89",
"nX c #F49986",
"mX c #F2968A",
"MX c #DDA385",
"NX c #E4A384",
"BX c #EBA484",
"VX c #E4A38A",
"CX c #EAA58B",
"ZX c #ECAA8B",
"AX c #E9A987",
"SX c #F3AC8C",
"DX c #F8A38B",
"FX c #EBAC93",
"GX c #E9A592",
"HX c #F2AD93",
"JX c #FCAB94",
"KX c #F6AA97",
"LX c #F6B299",
"PX c #EDB392",
"IX c #FAB4A3",
/* pixels */
"4.k nXdXh.C.K.M.M.B.K.8 $X8XOXOXOX#X@XoX$X$X`.^.!.v q.HXVXZXAXCX+X:X0.m VXxXoX6XNXZXCX,X^.$Xw.e.w.=.n ZXeXm.|.rXj.Z.Z.c.rXdXZ.M.",
"$.7 tXG.B.L.dX XM.h.A.8 ^.*XOX*X@XXXXX+X$X^.!.8.5.p.u OX7X9XNX@X+X*XT d VXOXoXoX@X8X6XoX_.q.5.q.q.*.n 9X:. XrXj.j.c.L j.V.dXL.x.",
"_ , < +.j.C.j.M.N... .7 X 7.+XXX~.+X+X+Xq.6.6.5.q.OXd a.9XXX$XoXq.5.<.n jX+X+X+X~.,X~.6.F.F.q.6.F.-.l cXA.}.|.h.z.z.x.z.@.wXK.h.",
"] 2 < I.N.B.h.A  .o.` 0 f 1X7X+X*X!.q.q.q.(.a.a.7XMXd d.LX=X+Xq.p.a.>.n hXq.,X,X=XhX*X!.F.F.!.!.).p.j DX{.A.@.B B C Z G X.O.B C ",
"P @ 2 ` N 8 J J w z P $ t.d.1.2.{ { R E R T E r.d.- & 4Xs.>.7.{ R { g U 1XY 9.7.>.E R E #.#.,.#.gXs.W lXz z I c j z x M _ j i b ",
"0 z 3 3 _ | N [ _ Y E P P s a a f { R { ] Y _ Y Y Y hXLX7.0 # s Y Y { ,.IXgXU Y h W E Y a # # +     % f.+ @ $ a >._ ! [ _ _ _ _ ",
"_.+.+.F.xXVXVXvXvXCXFX1X,X~.~.a.!.'.zXzXyXyXnXuXuXuXyXnXmX4.o.N bX<X3X3X>X3X2X:X<.4X4X;X*XOX0.&.&.&.T Y { v 2 ,.vX3XyXmXyXuXuXuX",
"R.A.@.O.p.OXOX.XXX,X5XXX^.F.8.7.5., x M C b.g.x.x.g.x. Xl.+.b.< _.I.M B N M N v # 0..X4XFXZXZXZXHXFXHXKX:X!.] 4 _ x @.b.l.h.g.j.",
"z.l.V ; Y 1.lX-XOXOXXXU.P.F.8.q.7.# < ` @.A.J.C.v.Z.j.B.k.@.~ < N _. ./ / ~ o.$.5 7.LXNXNXAXAXBXZXCXVX*X8.!.Y . z ` +.A.J.C.C.C.",
"k.C B ; # >.vX*X+X~.q.6.6.F.F.8.7.& # 0 x $.+.l.g.G h.G B  .! 3 N N M ~ / o.O.$.5 q.CXZXZXNXaX5X7X=X*X7.9.8.{ + 4 w M +.l.@...K ",
"[ [ ! , 7.hX&X1Xp.p.p.(.!.p.p.8.{ * 9 f I } ! ~ ~ `  . .o.[ ] 9 R } } [ [ ! w [ 3 !.IXFXFXVX=X@X(.a.1.d./.[.E = 9 I ! o.~ B `  .",
"9 2 2 2 f c c s 2 4 s s s j j , 2 + + 9 9 9 9 5 5 < < , 3 2 2 $ 4 6 , < < < 3 e > !.(.c &.h d d d d d s 9 s E #.$ 0 2 2 5 5 5 < ",
";Xs..XOX+X+X+X+X+X^.^.$X^.^.$X$X'.:X*X*X&X*Xd.,.q.$XoX+X*X&X;X;X(.+X'.$X>XU.3.4.X._.8.o <.OXa.OXXXXX~.~.(.OXkXkX&X*X&XOX*XOX~.@X",
"FXFXkXjXOXl *.^.T.`.].T.T.`.`.T.`._.!.,.7.GX7X*X=X9XHXaX1X7X>.R xX<X%X`.wXT.S.yXwX@.F.i u VX7X8X9XSXHXFX7X8X2X*X*X5.T n #XFXLXLX",
"cX+XXXa.q.d m cX%Xm.K W.rXL...z./ B N j v vX&XOXXX@X,X@X~.a.{ # pXm.h.M.M.m.N.z.L.x.A.4., ;X7Xa.~.,XxX@XXXw.!.6.8.*.&.& <.NXZXvX",
"cX~.q.7.a.' ' pXV.Z.c.Z.L.B.( ( C  .~ v z 1XOX+X@XXX~.@Xa.7.d.s yXK.z.B.j.A Z r A J.@.` 5 1X1X+X+X@X@X~.0.q.8.P.F.!.(.t &.=XxXCX",
"a.q.a.7.~.| S yXR. Xx.C...C @.~ / ~ [ x z 1X*X=XOX@XoX~.7.!.y.j tXI.wX( / C ../ o.H.! } , { *X*XOX=XaXP.q.q.q.q.!.9.!.0 *.q.~.w.",
"1.2.7.3.5.b i ;.h.B.A V N x x ! x ! ` j 0 p.p.7.<.5.5.' l y.9.4 8X_ ` M ~ M ^ ^ ! I I # , s *.q.~.<.-.4.*.5.7.<.#.v 9.j ] 9.,.*.",
"a t s j l y l *.-.;.S p j j s f c a s c s c c j 5 j j s c a g U *Xu o 5 s 5 2 0 0 4 g f _ zXv 1 1 5 5 5 0 4 g 9 2 , 2 @ 2 6 f c ",
"GX~.P.tXBXBXCXCX<XpXnXtX$X!.(.hXxXzXcXJXBXpXzX>X'.3XDX).t.lX-XMXr.w.+X~.q.(.~.0.y.&.(.vXnXcXP.I.^.I.G.G.F.[.KX;X' 8.,.5.} ,.gXhX",
"dXE.j.j.K.uXdXI.J R.W.j.N.+.X.;.N.h.Z.rXeXj.j.B.k.l.B ` o 4X=.0XAXZXBXNXVX9XOX~.q.' X $XT.@.A.uXdXyXN.N.O.^.ZXMXZXAXZXZX5X7X=Xt ",
"dXZ.c.v.x.x.M.G K C.c.c.z.Z B A.Z.c.L L L L c.x.g.C  .| 1 XXPXMXAXSXiXXXOXOXq.q.8.~.i S.R.z.z.K.M.h.h.A.F S.xX#X9X9X9XaX#XXXa.& ",
"dXV.C.v.v.v.A.z.x.x.v.v.Z C  .].z.c.c.C.C.z.G A C B O.O.o ,XZXAXxX6X+X^.OXXX5.5.8.P.b V A.c.x.C.l.k.g.A B F.iXoXoX+Xw.~.+X7.7.9 ",
"aX;.D.J.A.l.l.l.l.b.b.../ o.x Q.@.z.D.N.+.;.S  .[ ` ` } 6 ,XCXjX,X*X,X2X*X;X~.a.!.8.<  .D.z.z.k.`  .....B `.6X~.1X+X+X8.).[.y.9 ",
"jXu i 7 w w 0 w 3 e 3 z c 9 + )., 5 z v 0 9 4 4 0 z 6 s . 1X,.c Y R U R %.W E h P #   5 k < < 5 4 9 5 7 X -.+X1 Y c I f P P P $ ",
"ZXq.6.!.8.2 9 { 7.} 4     %.s.VX(.~.,.  f d.7.p.{ s } 8.6.zX!.y.p.t.p.P h E g d.t.d.d.p.p.!.p.7.s.t.8.P.S.%X6Xq.8.!.y.u.#.R R ] ",
"`.DXyX>XF.y ' VX,X7X,X.Xd.jXvX2X<X<X:XY v Q.DXJXnXT.sXJXJXJXJX3X).).[.j Y VXp.1X1XvXvX2X:X2X7X=X7.KXyX|.eXeXdX%XwX{.'.Q.} 2X7X~.",
"B.E.A C  .i | vX~.,X7X0X0X=X~.P.6.-.8.Q.k w _.].wXB.D.E.T.T.S.X.N N x 5 c (.5.^.).!.q.5.5.6.<.<., F.l.g.K Z.K.@.k.B M ! X 1X,XoX",
"A.A C C  .7 } vXa.+X~.~.+X!.8.!.8.!.8.8.x 8 l.T.R.h.h.A.C  .B N `  . .N 7 6.q.^.^.8.6.8.P.8.-.5.7 O.A.C.x.j.G ../ ` ! ] 4 8X=X@X",
" .C / / / x c 1XOX*X+X+X(.p.8.8.p.p.p.8.k 7 S.A.D.}.......B ~ ` ~ B  .N y ~.6.6.6.8.q.8.8.8.6.5.< w G.nXyXl.C B ^ [ ] _ 4 &X7X~.",
"_ ] ! ` ! j g -X.X.Xa.a.7.7.7.p.i.t.d.,., i ;.+.H.+.o.M M [ ! ! ! [ ! , s f.d.0.7.p.i.t.y.y.y.7.a   j Q.+.~ N ` [ I ] R % s.*X&X",
"a # 0 3 0 # 1..X& - t t a f % 4 a * a + l ).6 5 5 w 2 e 0 5 5 0 5 5 # c &X% % t a % & 9 s 5 5 2 4 1X5 7 < 3 6 4 # 2 s 4 & gXY 5 ",
"gXf hXvXzX2XGXa.o & <.jXhXhXa U gX1X4 & Y GXiX8X7XVXg 7.VX8X8XiX~.~.~.(.*X(.p.1.U O # !.xXzX` V F nXpX>X>X8.,.d.  0.NXjX9XVXvXhX",
"d.a s.1X+X$X,X+X+X(.a.a.a.a.d =X7X=XOX(.+X$X^.a.s.W O ;X9X@X@X@X@XoX+X,X+XP.q.~.U . ,.<X$X$XD.z.C.K.A.;.'.cX*XFXMXPXPXNXZXVXCX^.",
"i.+ % q.+XoX+X+X~.~.q.7.q.5.6 ~.+X~.*X+X~.5.F.8.(.P   OX,XOX#XOXoX+X).~.q.8.8.a.Y   ` _._.`.A.g.x.j.N.F S.pXoX5XAXNXAXAXBXAXU.-.",
"2.a t T +X@X+XU.q.q.7.!.q.!.5 !.,X+X~.q.q.F.S.6.p.Y . *XvX+X;X=X*X1X+Xp.p.!.!.(.Y # [ F.4.` A g.J.h.F D S.cXoX+X5X9X6XBXaXaXY.Y.",
"U % ;X(.+X+Xq.5.a.a.7.7.9.7.2 8.(.q.0.7.a.6.8.6./.c   ,.p.>.2.>.2.>.E E { R R { a   v 9.9.` ~  . .V N p -.aX~.XXq.e.5.*.5.6.-.5.",
").7.CX6X6X<X^.<X$X+X*X1X;X*X,.p.~.P.a.a.q.e.P.+X[.7.{ { v Y E >.W Y T U R Y ] R { T 3.8.y.8.!._._._.P.-.U.NX7X,XOXOX=X+X+X$X$X$X",
"DXpXpXyXeXyXsXY.iX<X+X8X7X8X8X,XU.^.^.,X6X6X6XDXJXcXiXnXJXJX*X(.FXFXHXHXHXJXJXBXaXBXcXDX1XVX+XP.q.(.6XcX9X5X9XaX7XHX=XVXJXiXDXaX",
"|.R.B.N.V.m.:.D S.$X| e.5.e.U.U.F.8.5.5.BXoXY.eX>XI.;.].wX%Xb o iX%XqXsXeX%X].D.Y.V.S.%X1 ~.' l ' m q.XXXX#XXXU.e.+Xl | DXI.%XY.",
"x.z.z.C.L.M.h.H `.nX^.q.e.6.P.5.8.q.| l iXH :.m.N...A z.z.@.O.i pXm.V.rXK g.x.c.M.h.j.A.6 q.<X,XjXhX2X+X#XOXq.q.q.q.z 5 _.G.I.V.",
"b.k.k.Z h.R.N.8 `.<X5.6.8.!.8.8.q.p.,.l iXY.R.G k.A r ..z.N.N : uXV.K.uXj.Z.v.v.j.z.Z @.7 j ~.+X(.&X2X).a.~.5.P.8.!.w N H.l.].+.",
"H.~ ~ `  .H.O.N :X2X!.p.(.p.y./.y./.2.c bXF.+.V / ) / /  . .N k pX:.D.D.G Z k.g.k.C / ~ 9 R -X-X;X1X[.).d.0.p.p././.v w o.$.G.S ",
"2 5 5 5 < , < # 8./.# f s s z 5 j s 9 c zXD 8 S x ! ! ` N N ` 3 tXS D p N V B V B B ~ ~ , g U f c c s s s f c f 0 z , } ! 3 > < ",
"-X*X*X+XXX+X,XOXjXhX*XOX+X~.).:X$X`.:X<XcX>XsXiX8XzX8X2XiXtX<X,XcX6X6X6X6X9X<X<X2X3XtXtX+XOX1 j j | } *.} ' <.*.e.*.XX8X<X+X+X$X",
"4X%.7XLXHXHXNX5X=XOXOXOXCX5.xX$XT.T.wX`.D.eXDX%X5.s +XvXU.^.$X).oX,X,X7XVXHX9X5.l 3._.nXJXiX;.O.;.G.nX>X3.} *.HXVX5X5X,X5X' ,X,X",
"7.& OXCXCXCX9XoX~.w.5.5.P.6 $XY.h.K M.z.j.j.Z.B.S.: !.<X-.6.5.5.6.P.+X~.,X7X8Xl X k b.A.A.B.l.J.z. .+.+.` k v 8X=X@X~.U.@X0.5.5.",
"7.a *XGXCXiX,X~.q.e.q.5.P.5 <XI.h.B.z.A Z g.j.A.+.7 P.,Xq.q.7.q.F.F.p.(.~.1XvXv . N / C Z Z Z g.( A B ~ ~ k v (.OXXX@X@XOXa.q.q.",
"i.a s.KXbX:X(.q.a.5.q.q.0.4 8.4.S  .C C ( g.A.+.[ 5 7.7X7.q.~.8.P.P.y.p.q.*XjXY . v ` ~ / ( A ( A / ~ ~ [ k l *X*X1XOX+X(.P.q.P.",
">.% g i.y.p.,.*.&.=.&.&.u . ).z v N ~ ~ M M M N v , a.OX' 5.' 5.*.-.,.,.*.*.<.c . j N ! ! ^ B M ~ B B N b 5 l a.0.i.7.&.:X5.-.*.",
"d W 7Xc c c c l l l m l l l *.3.-.4.+.4.4.O.k z v y *Xi.s U c l l l l c u n l d s | -.5.3.-.4.5.;.O.4.6.*.l y v c l s s v l y n ",
"MXVXVXVXhXhXGXxXzX2XiXzXpXpXcXpXyXnXzX%XzXbXxXvXvXvXVXvXjX8XGX8XxXaXvXHXBXBXiXcXnXpXpXsX<XcXxXxXvXzXiXcXvXNXbXbXbXhXHXLX1XvXFXVX",
"#XXXXX+X7.{ ).$.) / ..A.x.x.R.Z G G.X.8 6.+X5XXXOX,X+X+X~.q.,Xy D O.4.mXnXL... XL.G h.N.8 F.$XXXXX@X+X+XOXOX+X).p.7.s.-X{ hXGXVX",
"XX#X@X+X,X,.< o.) ) b.k.v.v.x.C.J.A.S b 6X5X7XXX+X7X<X6.6.8.6.: X ` ~ +.h.x.z.J.J.x.J.N.; 8.,XXX#X5X+XoXOX#XXX~.8.p.a   gXKXVXPX",
"#XOX~.+X+X9.e ^ ^ ) ..( ( k.h.@.@...J i +XXXOX@XXX5.6.8.F.P.q.5 < ! [ $. .G k.k....... .j 9.*XOXOX@XoXoXXXw.w.6.q.P.c . ^.6X6X5X",
"+X,X+X| q.7.5 9.[ ) /  .C F S D B  .N 7 ~.=X@XOX;XhX+X!.9.5.p.4 , ] [ ` S F C C C F ` ` 6 c &X4X=X=X,X1XoXq.~.!.5.7.l o *.q.P.e.",
"H.O.-.m ' u t &.1 1 5 k N N S b N v 2 . 4 U U h Y 1.Y f a % g + + 5 4 v N V B V C V N i . { W Q U W Q Y c f c s s 4 . , c l j ' ",
"{.{.^.$X6Xe.@XoXq.^.F.'.<X^.^.<X:X&X~.p.p.7.7.d.i.s.7.0.s.d.i.i.,.] ] _ q.$X'.>X`.%X$XP.p.VX&Xi.i.i.d.i.p.!.!.!.y.!._.'.!.5.!.$X",
"{.4.DXJX].wXE.%XwX|.wXH.pXcX2X6X8X8X8XhXxXvXzX8X2X7.7XIXlXjXLXLX1X).(.v @XZX8X6XBXSXSXcX8XhX*X,X8X*Xq.KXDX].].wXyXwX|.wXDXJXyXE.",
"} 5 nXS.h.B.rXR.g.l.A.; ^.8XOXOXOXXX+X+X~.P.q.6.e.*.m @X5XXX=X,X).).7.# 0.9XXX.X@X5XfXXX8.q.q.5.8.*.y cXD.J. Xh.g.h.x.K K.dXm.K ",
"} 3 N S.h.K.W.L.A... .7 l d r.#X@XoX^.U.P.P.P.6.6.U.t ~.9XU.@X^.!.p.,.s +XxXXX+X+X~.U.U.a.9.q.q.a.| l cX..|.uXh.K.z.C.z.N.uXD.m.",
"] , < H.N.A...A C +.! j   d.4XOXOX~.q.6.6.q.q.6.+XZXm w.9X+X$Xq.8.p.,.4 OXvXOXOX+X8X+X5.q.p.p.7.p.*.l GX'.G.N.F / C .... .X.F F ",
"R $ 2 9.4.N  ./ ` I ] * /.gX&Xi.t.7.7.p.p.,.7.&X1X7.t *X7Xd.7.p.7.p.,.s &X;X&X(.(.&X7.5.p.i.7.0.kX*XU hX,.b v ` ! ~ ^ o.$.` ^ ~ ",
"* * @ 3 , 3 > 3 3 2 q $ q 0 9 4 % 9 % $ 9 % % a a O i.LXY 4 4 4 9 4 $ U -X% % a 9 % # t % % 4 % a % P 1X+ 1 5 # 3 2 < e > 3 > 3 "
};
